<?xml version="1.0" encoding="UTF-8"?>
<svg id="Calque_1" xmlns="http://www.w3.org/2000/svg" viewBox="0 0 6108.04 2369.2">
  <defs>
    <style>
      .cls-1 {
        fill: #c6c6c6;
      }

      .cls-2 {
        fill: #fff;
      }
    </style>
  </defs>
  <g>
    <g>
      <polygon class="cls-1" points="524.39 772.15 1094.33 1557.3 685.77 772.15 524.39 772.15"/>
      <polygon class="cls-2" points="903.5 772.15 685.77 772.15 1094.33 1557.3 1103.5 1569.93 517.42 2369.2 902.5 2369.2 1473.66 1569.93 903.5 772.15"/>
    </g>
    <g>
      <polygon class="cls-1" points="949.27 0 379.33 785.14 787.89 0 949.27 0"/>
      <polygon class="cls-2" points="570.16 0 787.89 0 379.33 785.14 370.16 797.78 956.24 1597.04 571.15 1597.04 0 797.78 570.16 0"/>
    </g>
  </g>
  <g>
    <g>
      <polygon class="cls-2" points="1840.64 846.95 2022.85 846.95 2022.85 930.34 1840.64 930.34 1840.64 1097.11 1747.99 1097.11 1747.99 664.74 1983.7 664.74 2043.81 748.13 1840.64 748.13 1840.64 846.95"/>
      <path class="cls-2" d="M2361.31,929.71c51.29-23.49,79.67-72.28,79.67-127.25,0-69.16-55.59-137.72-152.54-137.72h-180.37v432.36h90.81v-152.58h66.69l90.81,111.8v40.77h95.11v-57.46l-90.19-109.93ZM2286.57,862.98h-87.69v-116.73h87.69c37.06,0,61.18,25.96,61.18,58.05s-24.12,58.68-61.18,58.68Z"/>
      <path class="cls-2" d="M2701.03,659.19c-38.79,0-74.41,8.42-105.37,23.53-19.15,9.34-36.51,21.21-51.66,35.33-42.79,39.78-68.42,96.88-68.42,162.87,0,126.62,95.11,221.73,225.45,221.73,38.16,0,73.24-8.2,103.86-22.9,19.19-9.23,36.62-21.03,51.91-35,43.57-39.93,69.67-97.54,69.67-163.83,0-127.25-95.11-221.73-225.45-221.73ZM2701.03,1012.47c-70.41,0-129.71-51.88-129.71-131.55,0-34.08,10.88-63.05,28.79-85.08l149.82,207.69c-15.18,5.81-31.69,8.93-48.9,8.93ZM2800.92,967.25l-150.33-208.35c15.59-6.25,32.65-9.56,50.44-9.56,70.41,0,129.71,51.91,129.71,131.58,0,34.71-11.29,64.16-29.82,86.33Z"/>
      <polygon class="cls-2" points="3434.79 664.74 3434.79 1097.11 3345.23 1097.11 3345.23 818.53 3256.92 1097.11 3158.72 1097.11 3071 818.53 3071 1097.11 2981.44 1097.11 2981.44 664.74 3114.24 664.74 3208.76 961.22 3303.25 664.74 3434.79 664.74"/>
      <g>
        <path class="cls-2" d="M4302,967.4c0,68.53-53.13,135.26-179.75,135.26-100.66,0-155.63-56.84-174.16-103.79l79.05-45.7c12.35,35.22,53.75,59.3,98.2,59.3,63.64,0,80.92-20.37,80.92-39.52,0-16.69-12.35-29.67-41.36-36.43l-74.12-17.9c-68.57-16.69-121.07-53.75-121.07-127.87,0-81.55,70.41-131.55,161.22-131.55,96.33,0,146.99,51.25,165.52,102.5l-84.01,40.77c-6.8-26.54-30.88-57.43-81.51-57.43-45.74,0-66.73,20.99-66.73,43.24,0,19.12,15.44,30.26,39.52,35.81l88.97,21.62c71.03,17.28,109.3,61.14,109.3,121.69Z"/>
        <path class="cls-2" d="M4759.7,970.49c-30.88,79.05-108.09,132.17-205.08,132.17-130.33,0-225.45-95.11-225.45-221.73s95.11-221.73,225.45-221.73c93.9,0,169.86,49.38,201.36,124.12l-82.13,43.86c-19.78-48.16-66.1-76.58-119.23-76.58-70.41,0-129.71,50.04-129.71,130.33s59.3,130.33,129.71,130.33c55.59,0,103.79-30.92,122.32-83.42l82.76,42.65Z"/>
        <path class="cls-2" d="M5067.9,929.71c51.25-23.49,79.67-72.28,79.67-127.25,0-69.16-55.59-137.72-152.58-137.72h-180.33v432.36h90.81v-152.58h66.69l90.77,111.8v40.77h95.15v-57.46l-90.19-109.93ZM4993.16,862.98h-87.69v-116.73h87.69c37.06,0,61.14,25.96,61.14,58.05s-24.08,58.68-61.14,58.68Z"/>
        <rect class="cls-2" x="5216.14" y="664.74" width="92.65" height="432.36"/>
        <path class="cls-2" d="M5569.42,664.74h-171.7v432.36h92.65v-144.53h79.05c95.11,0,155.04-57.46,155.04-151.33,0-74.16-59.93-136.51-155.04-136.51ZM5569.42,869.16h-79.05v-121.03h79.05c36.43,0,62.39,25.33,62.39,60.52s-25.96,60.52-62.39,60.52Z"/>
        <polygon class="cls-2" points="6108.04 664.74 6108.04 752.43 5975.24 752.43 5975.24 1097.11 5881.34 1097.11 5881.34 752.43 5811.93 752.43 5748.69 664.74 6108.04 664.74"/>
      </g>
    </g>
    <g>
      <path class="cls-2" d="M2153.17,1145.3h302.65v84.62h-211.24v83.39h192.09v83.38h-192.09v96.36h211.24v84.62h-302.65v-432.36Z"/>
      <path class="cls-2" d="M2486.08,1361.48c0-127.24,95.12-221.74,225.44-221.74,93.88,0,169.86,49.41,201.36,124.15l-82.15,43.85c-19.77-48.18-66.09-76.59-119.21-76.59-70.41,0-129.71,50.03-129.71,130.33s59.3,130.33,129.71,130.33c55.59,0,103.77-30.88,122.3-83.39l82.77,42.62c-30.88,79.06-108.09,132.18-205.06,132.18-130.33,0-225.44-95.12-225.44-221.74Z"/>
      <path class="cls-2" d="M3246.42,1397.31h-182.21v180.36h-92.65v-432.36h92.65v165.53h182.21v-165.53h92.65v432.36h-92.65v-180.36Z"/>
      <path class="cls-2" d="M3428.01,1145.3h101.91l180.36,280.42v-280.42h90.18v432.36h-102.53l-180.36-284.74v284.74h-89.56v-432.36Z"/>
      <polygon class="cls-2" points="2098.08 1143.42 2098.08 1231.11 1965.28 1231.11 1965.28 1575.78 1871.38 1575.78 1871.38 1231.11 1801.97 1231.11 1738.73 1143.42 2098.08 1143.42"/>
      <path class="cls-2" d="M4080.86,1139.74c-38.79,0-74.41,8.42-105.37,23.53-19.15,9.34-36.51,21.21-51.66,35.33-42.79,39.78-68.42,96.88-68.42,162.87,0,126.62,95.11,221.73,225.45,221.73,38.16,0,73.24-8.2,103.86-22.9,19.19-9.23,36.62-21.03,51.91-35,43.57-39.93,69.67-97.54,69.67-163.83,0-127.25-95.11-221.73-225.45-221.73ZM4080.86,1493.02c-70.41,0-129.71-51.88-129.71-131.55,0-34.08,10.88-63.05,28.79-85.08l149.82,207.69c-15.18,5.81-31.69,8.93-48.9,8.93ZM4180.76,1447.8l-150.33-208.35c15.59-6.25,32.65-9.56,50.44-9.56,70.41,0,129.71,51.91,129.71,131.58,0,34.71-11.29,64.16-29.82,86.33Z"/>
      <g>
        <path class="cls-2" d="M4365.01,1145.23h92.65v348.98h194.56v83.38h-287.21v-432.36Z"/>
        <path class="cls-2" d="M5111.14,1361.41c0-127.24,96.35-221.74,225.44-221.74,87.09,0,158.74,42.62,193.95,108.09l-83.38,42.62c-22.85-37.67-64.24-59.3-110.56-59.3-69.18,0-129.71,50.03-129.71,130.33s58.06,130.33,129.71,130.33c55.59,0,99.44-24.09,120.44-76.59h-116.74v-83.38h206.92v245.83h-89.56v-42c-25.94,27.79-71.03,47.56-130.94,47.56-119.21,0-215.56-95.12-215.56-221.74Z"/>
        <path class="cls-2" d="M5623.79,1145.23h92.65v432.36h-92.65v-432.36Z"/>
        <path class="cls-2" d="M5805.39,1145.23h302.65v84.62h-211.24v83.39h192.09v83.38h-192.09v96.36h211.24v84.62h-302.65v-432.36Z"/>
        <path class="cls-2" d="M4864.13,1139.81c-38.79,0-74.41,8.42-105.37,23.53-19.15,9.34-36.51,21.21-51.66,35.33-42.79,39.78-68.42,96.88-68.42,162.87,0,126.62,95.11,221.73,225.45,221.73,38.16,0,73.24-8.2,103.86-22.9,19.19-9.23,36.62-21.03,51.91-35,43.57-39.93,69.67-97.54,69.67-163.83,0-127.25-95.11-221.73-225.45-221.73ZM4864.13,1493.09c-70.41,0-129.71-51.88-129.71-131.55,0-34.08,10.88-63.05,28.79-85.08l149.82,207.69c-15.18,5.81-31.69,8.93-48.9,8.93ZM4964.02,1447.87l-150.33-208.35c15.59-6.25,32.65-9.56,50.44-9.56,70.41,0,129.71,51.91,129.71,131.58,0,34.71-11.29,64.16-29.82,86.33Z"/>
      </g>
    </g>
  </g>
</svg>