<?xml version="1.0" encoding="UTF-8"?>
<svg id="Calque_1" xmlns="http://www.w3.org/2000/svg" viewBox="0 0 3553.41 1200.48">
  <defs>
    <style>
      .cls-1 {
        fill: #65a8c5;
      }

      .cls-2 {
        fill: #fff;
      }
    </style>
  </defs>
  <g>
    <polygon class="cls-1" points="1012.87 237.34 1239.85 237.34 1239.85 341.21 1012.87 341.21 1012.87 548.95 897.46 548.95 897.46 10.37 1191.07 10.37 1265.95 114.24 1012.87 114.24 1012.87 237.34"/>
    <path class="cls-1" d="M1661.46,340.43c63.89-29.26,99.24-90.04,99.24-158.51,0-86.15-69.25-171.56-190.01-171.56h-224.68v538.58h113.12v-190.06h83.08l113.12,139.27v50.79h118.48v-71.58l-112.34-136.94ZM1568.35,257.31h-109.23V111.9h109.23c46.16,0,76.21,32.33,76.21,72.31s-30.04,73.09-76.21,73.09Z"/>
    <path class="cls-1" d="M2084.63,3.45c-48.32,0-92.69,10.49-131.26,29.31-23.86,11.63-45.48,26.43-64.35,44.01-53.31,49.55-85.23,120.68-85.23,202.88,0,157.73,118.48,276.21,280.83,276.21,47.54,0,91.23-10.21,129.38-28.53,23.91-11.5,45.61-26.2,64.67-43.6,54.27-49.74,86.79-121.5,86.79-204.07,0-158.51-118.48-276.21-280.83-276.21ZM2084.63,443.52c-87.7,0-161.57-64.62-161.57-163.86,0-42.45,13.56-78.54,35.86-105.98l186.63,258.71c-18.91,7.24-39.48,11.13-60.91,11.13ZM2209.06,387.19l-187.27-259.54c19.42-7.79,40.67-11.91,62.83-11.91,87.7,0,161.57,64.67,161.57,163.91,0,43.23-14.06,79.92-37.14,107.53Z"/>
    <polygon class="cls-1" points="2998.66 10.37 2998.66 548.95 2887.1 548.95 2887.1 201.94 2777.09 548.95 2654.77 548.95 2545.49 201.94 2545.49 548.95 2433.93 548.95 2433.93 10.37 2599.35 10.37 2717.1 379.68 2834.8 10.37 2998.66 10.37"/>
    <path class="cls-2" d="M1303.69,1028.54c0,85.37-66.18,168.49-223.9,168.49-125.39,0-193.86-70.8-216.94-129.29l98.46-56.93c15.39,43.87,66.96,73.87,122.33,73.87,79.28,0,100.8-25.37,100.8-49.23,0-20.79-15.39-36.96-51.52-45.39l-92.33-22.3c-85.41-20.79-150.81-66.96-150.81-159.28,0-101.58,87.7-163.86,200.82-163.86,119.99,0,183.1,63.84,206.18,127.68l-104.65,50.79c-8.47-33.07-38.47-71.54-101.53-71.54-56.97,0-83.12,26.15-83.12,53.86,0,23.81,19.24,37.69,49.23,44.61l110.83,26.93c88.48,21.52,136.16,76.16,136.16,151.59Z"/>
    <path class="cls-2" d="M1873.83,1032.39c-38.47,98.46-134.64,164.64-255.46,164.64-162.35,0-280.83-118.48-280.83-276.21s118.48-276.21,280.83-276.21c116.97,0,211.59,61.51,250.83,154.61l-102.31,54.64c-24.64-59.99-82.34-95.4-148.52-95.4-87.7,0-161.57,62.33-161.57,162.35s73.87,162.35,161.57,162.35c69.25,0,129.29-38.52,152.37-103.91l103.09,53.13Z"/>
    <path class="cls-2" d="M2257.75,981.6c63.84-29.26,99.24-90.04,99.24-158.51,0-86.15-69.25-171.56-190.06-171.56h-224.64v538.58h113.12v-190.06h83.08l113.07,139.27v50.79h118.52v-71.58l-112.34-136.94ZM2164.64,898.48h-109.23v-145.41h109.23c46.16,0,76.16,32.33,76.16,72.31s-30,73.09-76.16,73.09Z"/>
    <rect class="cls-2" x="2442.4" y="651.54" width="115.41" height="538.58"/>
    <path class="cls-2" d="M2882.47,651.54h-213.88v538.58h115.41v-180.03h98.47c118.48,0,193.13-71.58,193.13-188.5,0-92.37-74.65-170.05-193.13-170.05ZM2882.47,906.17h-98.47v-150.77h98.47c45.39,0,77.72,31.55,77.72,75.38s-32.33,75.38-77.72,75.38Z"/>
    <polygon class="cls-2" points="3553.41 651.54 3553.41 760.76 3387.99 760.76 3387.99 1190.12 3271.02 1190.12 3271.02 760.76 3184.56 760.76 3105.78 651.54 3553.41 651.54"/>
  </g>
  <g>
    <g>
      <polygon class="cls-1" points="265.71 391.25 554.5 789.09 347.48 391.25 265.71 391.25"/>
      <polygon class="cls-2" points="457.81 391.25 347.48 391.25 554.5 789.09 559.15 795.49 262.18 1200.48 457.3 1200.48 746.71 795.49 457.81 391.25"/>
    </g>
    <g>
      <polygon class="cls-1" points="481 0 192.21 397.84 399.23 0 481 0"/>
      <polygon class="cls-2" points="288.9 0 399.23 0 192.21 397.84 187.56 404.24 484.53 809.23 289.41 809.23 0 404.24 288.9 0"/>
    </g>
  </g>
</svg>