<?xml version="1.0" encoding="UTF-8"?>
<svg id="Calque_1" xmlns="http://www.w3.org/2000/svg" viewBox="0 0 4383.57 2239.3">
  <defs>
    <style>
      .cls-1 {
        fill: #65a8c5;
      }

      .cls-2 {
        fill: #fff;
      }
    </style>
  </defs>
  <g>
    <polygon class="cls-1" points="1589.48 219.15 1794.37 219.15 1794.37 312.92 1589.48 312.92 1589.48 500.44 1485.3 500.44 1485.3 14.26 1750.34 14.26 1817.94 108.02 1589.48 108.02 1589.48 219.15"/>
    <path class="cls-1" d="M2174.97,312.21c57.67-26.42,89.59-81.28,89.59-143.09,0-77.77-62.51-154.87-171.53-154.87h-202.83v486.19h102.12v-171.57h75l102.12,125.72v45.85h106.95v-64.62l-101.41-123.61ZM2090.92,237.18h-98.6V105.91h98.6c41.67,0,68.79,29.19,68.79,65.28s-27.12,65.98-68.79,65.98Z"/>
    <path class="cls-1" d="M2556.97,8.02c-43.62,0-83.68,9.47-118.49,26.46-21.54,10.5-41.05,23.85-58.09,39.73-48.12,44.73-76.94,108.94-76.94,183.15,0,142.38,106.95,249.34,253.51,249.34,42.91,0,82.35-9.22,116.79-25.76,21.58-10.38,41.18-23.65,58.38-39.36,48.99-44.9,78.34-109.68,78.34-184.22,0-143.09-106.95-249.34-253.51-249.34ZM2556.97,405.27c-79.17,0-145.86-58.33-145.86-147.92,0-38.32,12.24-70.9,32.37-95.67l168.47,233.54c-17.07,6.53-35.64,10.05-54.99,10.05ZM2669.3,354.42l-169.05-234.29c17.53-7.03,36.71-10.75,56.72-10.75,79.17,0,145.86,58.38,145.86,147.96,0,39.03-12.69,72.14-33.53,97.07Z"/>
    <polygon class="cls-1" points="3382.09 14.26 3382.09 500.44 3281.38 500.44 3281.38 187.19 3182.07 500.44 3071.65 500.44 2973 187.19 2973 500.44 2872.29 500.44 2872.29 14.26 3021.62 14.26 3127.91 347.64 3234.16 14.26 3382.09 14.26"/>
    <path class="cls-1" d="M1852,933.38c0,77.06-59.74,152.1-202.12,152.1-113.2,0-175-63.92-195.84-116.71l88.89-51.39c13.89,39.61,60.44,66.69,110.43,66.69,71.56,0,90.99-22.9,90.99-44.44,0-18.77-13.89-33.36-46.51-40.97l-83.35-20.13c-77.1-18.77-136.14-60.44-136.14-143.79,0-91.7,79.17-147.92,181.29-147.92,108.32,0,165.29,57.63,186.12,115.26l-94.47,45.85c-7.65-29.85-34.73-64.58-91.66-64.58-51.43,0-75.04,23.61-75.04,48.62,0,21.5,17.36,34.02,44.44,40.27l100.05,24.31c79.87,19.43,122.91,68.75,122.91,136.84Z"/>
    <path class="cls-1" d="M2366.68,936.85c-34.73,88.89-121.55,148.63-230.61,148.63-146.56,0-253.51-106.95-253.51-249.34s106.95-249.34,253.51-249.34c105.59,0,191,55.52,226.43,139.57l-92.36,49.32c-22.24-54.16-74.33-86.12-134.07-86.12-79.17,0-145.86,56.27-145.86,146.56s66.69,146.56,145.86,146.56c62.51,0,116.71-34.77,137.55-93.81l93.06,47.96Z"/>
    <path class="cls-1" d="M2713.25,891.01c57.63-26.42,89.59-81.28,89.59-143.09,0-77.77-62.51-154.87-171.57-154.87h-202.78v486.19h102.12v-171.57h75l102.07,125.72v45.85h106.99v-64.62l-101.41-123.61ZM2629.2,815.97h-98.6v-131.26h98.6c41.67,0,68.75,29.19,68.75,65.28s-27.08,65.98-68.75,65.98Z"/>
    <rect class="cls-1" x="2879.94" y="593.05" width="104.18" height="486.19"/>
    <path class="cls-1" d="M3277.2,593.05h-193.07v486.19h104.18v-162.52h88.89c106.95,0,174.34-64.62,174.34-170.17,0-83.39-67.39-153.5-174.34-153.5ZM3277.2,822.92h-88.89v-136.1h88.89c40.97,0,70.16,28.48,70.16,68.05s-29.19,68.05-70.16,68.05Z"/>
    <polygon class="cls-1" points="3882.87 593.05 3882.87 691.65 3733.54 691.65 3733.54 1079.24 3627.95 1079.24 3627.95 691.65 3549.89 691.65 3478.79 593.05 3882.87 593.05"/>
  </g>
  <g>
    <g>
      <polygon class="cls-1" points="494.03 727.45 1030.97 1467.13 646.06 727.45 494.03 727.45"/>
      <polygon class="cls-2" points="851.19 727.45 646.06 727.45 1030.97 1467.13 1039.61 1479.04 487.47 2232.03 850.25 2232.03 1388.34 1479.04 851.19 727.45"/>
    </g>
    <g>
      <polygon class="cls-1" points="894.31 0 357.37 739.69 742.28 0 894.31 0"/>
      <polygon class="cls-2" points="537.15 0 742.28 0 357.37 739.69 348.73 751.59 900.87 1504.58 538.09 1504.58 0 751.59 537.15 0"/>
    </g>
  </g>
  <g>
    <path class="cls-2" d="M1962.39,1167.93h340.33v95.15h-237.54v93.77h216.01v93.76h-216.01v108.35h237.54v95.15h-340.33v-486.18Z"/>
    <path class="cls-2" d="M2336.75,1411.03c0-143.08,106.96-249.34,253.51-249.34,105.57,0,191,55.56,226.42,139.6l-92.38,49.31c-22.23-54.17-74.32-86.12-134.05-86.12-79.18,0-145.86,56.26-145.86,146.55s66.68,146.55,145.86,146.55c62.51,0,116.69-34.73,137.52-93.77l93.07,47.93c-34.73,88.9-121.55,148.63-230.59,148.63-146.55,0-253.51-106.96-253.51-249.34Z"/>
    <path class="cls-2" d="M3191.73,1451.31h-204.89v202.81h-104.18v-486.18h104.18v186.14h204.89v-186.14h104.18v486.18h-104.18v-202.81Z"/>
    <path class="cls-2" d="M3395.93,1167.93h114.6l202.81,315.32v-315.32h101.4v486.18h-115.3l-202.81-320.19v320.19h-100.71v-486.18Z"/>
    <path class="cls-2" d="M1646.27,1746.73h104.18v392.42h218.78v93.76h-322.97v-486.18Z"/>
    <path class="cls-2" d="M2485.29,1989.82c0-143.08,108.35-249.34,253.51-249.34,97.93,0,178.5,47.92,218.09,121.54l-93.76,47.92c-25.7-42.36-72.23-66.68-124.33-66.68-77.79,0-145.86,56.26-145.86,146.55s65.29,146.55,145.86,146.55c62.51,0,111.82-27.09,135.44-86.12h-131.27v-93.76h232.67v276.43h-100.71v-47.23c-29.17,31.25-79.87,53.48-147.25,53.48-134.05,0-242.4-106.96-242.4-249.34Z"/>
    <path class="cls-2" d="M3061.76,1746.73h104.18v486.18h-104.18v-486.18Z"/>
    <path class="cls-2" d="M3265.95,1746.73h340.33v95.15h-237.54v93.77h216.01v93.76h-216.01v108.35h237.54v95.15h-340.33v-486.18Z"/>
    <polygon class="cls-2" points="1900.44 1165.82 1900.44 1264.42 1751.11 1264.42 1751.11 1652.01 1645.52 1652.01 1645.52 1264.42 1567.47 1264.42 1496.36 1165.82 1900.44 1165.82"/>
    <path class="cls-2" d="M4130.06,1161.68c-43.62,0-83.68,9.47-118.49,26.46-21.54,10.5-41.05,23.85-58.09,39.73-48.12,44.73-76.94,108.94-76.94,183.15,0,142.38,106.95,249.34,253.51,249.34,42.91,0,82.35-9.22,116.79-25.76,21.58-10.38,41.18-23.65,58.38-39.36,48.99-44.9,78.34-109.68,78.34-184.22,0-143.09-106.95-249.34-253.51-249.34ZM4130.06,1558.94c-79.17,0-145.86-58.33-145.86-147.92,0-38.32,12.24-70.9,32.37-95.67l168.47,233.54c-17.07,6.53-35.64,10.05-54.99,10.05ZM4242.38,1508.09l-169.05-234.29c17.53-7.03,36.71-10.75,56.72-10.75,79.17,0,145.86,58.38,145.86,147.96,0,39.03-12.69,72.14-33.53,97.07Z"/>
    <path class="cls-2" d="M2207.53,1740.63c-43.62,0-83.68,9.47-118.49,26.46-21.54,10.5-41.05,23.85-58.09,39.73-48.12,44.73-76.94,108.94-76.94,183.15,0,142.38,106.95,249.34,253.51,249.34,42.91,0,82.35-9.22,116.79-25.76,21.58-10.38,41.18-23.65,58.38-39.36,48.99-44.9,78.34-109.68,78.34-184.22,0-143.09-106.95-249.34-253.51-249.34ZM2207.53,2137.89c-79.17,0-145.86-58.33-145.86-147.92,0-38.32,12.24-70.9,32.37-95.67l168.47,233.54c-17.07,6.53-35.64,10.05-54.99,10.05ZM2319.85,2087.04l-169.05-234.29c17.53-7.03,36.71-10.75,56.72-10.75,79.17,0,145.86,58.38,145.86,147.96,0,39.03-12.69,72.14-33.53,97.07Z"/>
  </g>
</svg>